<?xml version="1.0" encoding="utf-8"?>
<!-- Generator: Adobe Illustrator 13.0.0, SVG Export Plug-In . SVG Version: 6.00 Build 14948)  -->
<!DOCTYPE svg PUBLIC "-//W3C//DTD SVG 1.1//EN" "http://www.w3.org/Graphics/SVG/1.1/DTD/svg11.dtd">
<svg version="1.1" xmlns="http://www.w3.org/2000/svg" xmlns:xlink="http://www.w3.org/1999/xlink" x="0px" y="0px"
	 width="583.875px" height="442.849px" viewBox="0 0 583.875 442.849" style="enable-background:new 0 0 583.875 442.849;"
	 xml:space="preserve">
<g id="Layer_5">
	<g>
		<path style="opacity:0.5;" d="M512.98,45.947l-0.7-0.651c-1.649-1.351-3.602-2.002-5.803-2.002
			c-145.7-10.461-287.846-10.461-426.44,0c-2.551,0-4.703,0.901-6.504,2.653c-1.801,1.752-2.702,3.854-2.702,6.357
			c-11.558,97.257-11.558,196.415,0,297.477c0,2.452,0.9,4.604,2.702,6.356c0.25,0.25,0.55,0.45,0.801,0.701
			c1.2,0.95,2.551,1.551,4.103,1.802l1.601,0.15c93.864,9.359,187.728,12.514,281.642,9.51c48.282-1.552,96.517-4.705,144.799-9.51
			c2.552,0,4.753-0.901,6.503-2.653c1.803-1.752,2.702-3.904,2.702-6.356c8.106-52.958,11.259-110.772,9.407-173.49
			c-1.102-37.241-3.954-76.185-8.557-116.879l-0.851-7.107c0-1.152-0.199-2.153-0.549-3.104c-0.151-0.5-0.401-0.951-0.651-1.401
			C514.081,47.148,513.581,46.498,512.98,45.947L512.98,45.947z M511.53,50.752c0.75,1.251,1.151,2.703,1.151,4.355l0.851,6.958
			c4.554,39.943,7.355,78.185,8.456,114.775c1.249,43.849,0.049,85.294-3.604,124.286c-1.501,15.769-3.402,31.185-5.703,46.151
			c0,2.402-0.901,4.455-2.651,6.207c-1.752,1.751-3.902,2.603-6.456,2.603c-47.632,4.755-95.263,7.858-142.896,9.36
			c-92.663,2.953-185.326-0.2-277.939-9.36l-1.601-0.101c-0.451-0.05-0.851-0.15-1.251-0.3c-0.4-0.15-0.751-0.3-1.101-0.451
			c-0.901-0.449-1.701-1-2.452-1.751c-0.25-0.251-0.45-0.451-0.65-0.701c-0.101-0.101-0.201-0.2-0.301-0.351
			c-1.15-1.501-1.751-3.203-1.751-5.155c-0.15-1.051-0.25-2.053-0.351-3.054c-11.057-98.208-10.907-194.563,0.351-289.117
			c0-2.453,0.9-4.556,2.702-6.257c1.751-1.751,3.903-2.603,6.404-2.603c136.793-10.261,277.088-10.261,420.835,0
			c1.652,0,3.153,0.4,4.505,1.151c0.449,0.25,0.851,0.5,1.249,0.801l0.702,0.65C510.631,49.401,511.131,50.051,511.53,50.752
			L511.53,50.752z"/>
		<path style="fill:#254B72;" d="M511.045,42.533c-0.998,1.449-0.25,2.148,2.199,2.199h4.299c0.4-0.051,0.15,0.85-0.75,2.648
			c-0.898,1.799-1.35,3.948-1.35,6.497l0.85,7.298c4.598,41.583,7.447,81.417,8.547,119.552c1.299,45.332,0.1,88.165-3.549,128.499
			h61.275h1.15V0H0v309.227h66.474c-6.647-86.516-5.148-171.632,4.598-255.349c-0.85-3.748-0.8-7.146,0.05-10.245
			c0.85-3.149,3.749-3.699,8.646-1.649C216.863,27.988,360.605,28.188,511.045,42.533L511.045,42.533z"/>
		<path style="fill:#624200;" d="M515.443,358.257c0,2.549-0.898,4.698-2.699,6.497c-1.748,1.8-3.947,2.699-6.496,2.699
			c-48.23,4.948-96.412,8.196-144.643,9.746c-93.813,3.049-187.575-0.2-281.337-9.746l-1.6-0.15c-1.849-0.3-3.499-1.149-4.898-2.549
			c-1.799-1.799-2.699-3.948-2.699-6.497c-1.85-16.394-3.349-32.737-4.598-49.03H0v132.497h582.168c0.549,0,1.049-0.051,1.549-0.101
			V309.326c-0.35-0.05-0.75-0.1-1.15-0.1h-61.275C519.742,325.97,517.793,342.313,515.443,358.257L515.443,358.257z"/>
		<path style="fill:none;stroke:#4A3200;stroke-width:2.2491;stroke-miterlimit:10;" d="M0,441.724h582.168
			c0.549,0,1.049-0.051,1.549-0.101 M66.474,309.227H0 M583.717,309.326c-0.35-0.05-0.75-0.1-1.15-0.1h-61.275"/>
		<path style="opacity:0.3;" d="M544.482,429.328c13.045,0.1,17.643-3.698,13.895-11.346l-17.543-25.489L49.88,393.692
			l-16.943,27.489c-3.499,5.397,2.349,8.347,17.493,8.896C210.416,431.077,375.1,430.828,544.482,429.328L544.482,429.328z"/>
		<path d="M535.736,402.139l-36.236-0.55c0.051,7.048,1.75,14.045,5.098,21.042c7.748,1.55,17.244,1.649,28.539,0.3
			C535.785,415.634,536.686,408.687,535.736,402.139L535.736,402.139z"/>
		<path d="M83.517,400.84l-36.235-0.55c0.05,7.047,1.749,14.044,5.098,21.041c7.747,1.55,17.243,1.649,28.538,0.3
			C83.567,414.334,84.466,407.387,83.517,400.84L83.517,400.84z"/>
		<path style="fill:none;stroke:#C4C08A;stroke-width:2.2491;stroke-miterlimit:10;" d="M545.232,30.487
			c-2.1-2.099-4.6-3.148-7.498-3.148c-79.967-6.197-160.984-9.296-243.002-9.246h-1.65c-82.017-0.05-162.984,3.049-242.952,9.246
			c-2.949,0-5.448,1.05-7.497,3.148c-2.049,2.05-3.048,4.599-3.048,7.547C26.29,153.238,22.791,271.642,29.039,393.143
			c0.75,5.948,3.099,9.646,7.097,10.996c3.948,1.349,7.447,1.949,10.446,1.849c82.817,1.05,164.984,1.149,246.5,0.351h1.65
			c81.518,0.799,163.684,0.699,246.551-0.351c2.949,0.101,6.447-0.5,10.445-1.849c4-1.35,6.348-5.048,7.098-10.996
			c6.248-121.501,2.75-239.904-10.545-355.108C548.281,35.086,547.281,32.537,545.232,30.487L545.232,30.487z"/>
		<path style="fill:#E3E2B7;" d="M548.23,38.034c0-2.948-1-5.497-3.049-7.547c-2.1-2.099-4.598-3.148-7.496-3.148
			c-79.969-6.197-160.986-9.296-243.004-9.246h-1.648c-82.018-0.05-162.985,3.049-242.953,9.246c-2.949,0-5.448,1.05-7.497,3.148
			c-2.049,2.05-3.049,4.599-3.049,7.547C26.24,153.238,22.741,271.642,28.988,393.143c0.75,5.948,3.099,9.646,7.097,10.996
			c3.949,1.349,7.447,1.949,10.446,1.849c82.816,1.05,164.984,1.149,246.501,0.35h1.648c81.518,0.8,163.686,0.7,246.553-0.35
			c2.947,0.101,6.447-0.5,10.445-1.849c3.998-1.35,6.348-5.048,7.098-10.996C565.023,271.642,561.525,153.238,548.23,38.034
			L548.23,38.034z M523.041,38.335l0.5,0.55c0.898,0.999,1.549,2.148,1.949,3.398l0.15,0.999l0.049,0.351l0.1,0.499l0.051,0.5
			c0,0,0,0,0,0.05l0.049,0.351c13.846,117.702,13.846,221.811,0,312.375c-0.049,2.599-0.998,4.848-2.848,6.697
			c-1.85,1.849-4.148,2.749-6.797,2.749h-0.051c-2.1,0.199-4.197,0.399-6.248,0.649c-2.549,0.25-5.047,0.45-7.547,0.7
			c-1.549,0.149-3.049,0.3-4.498,0.449l-132.596,8.197c-13.795,0.449-27.59,0.749-41.385,0.949c-0.85,0.1-1.299,0.15-1.35,0.15
			c-0.449,0-0.898-0.051-1.248-0.101c-81.418,1-162.886-2.449-244.303-10.346c-0.05,0-0.1,0-0.15,0h-0.35
			c-0.65-0.05-1.25-0.15-1.849-0.2l-0.45-0.05l-3.398-0.3l-0.35-0.05l-0.45-0.05c-2.649,0-4.948-0.9-6.797-2.749
			c-1.799-1.8-2.749-3.948-2.799-6.447c0-0.051,0-0.051,0-0.101s0-0.1,0-0.149c-12.145-106.107-12.145-210.216,0-312.325v-0.05
			l0.2-1.85c0.35-1.85,1.199-3.499,2.599-4.848c1.85-1.85,4.148-2.749,6.847-2.749c144.992-10.996,293.682-10.996,446.172,0
			C518.893,35.586,521.191,36.485,523.041,38.335L523.041,38.335z"/>
		<path style="fill:#E3E2B7;" d="M523.541,38.884l-0.5-0.549c-1.85-1.85-4.148-2.749-6.797-2.749
			c-152.49-10.996-301.18-10.996-446.172,0c-2.699,0-4.998,0.899-6.848,2.749c-1.399,1.349-2.249,2.998-2.599,4.848
			c0.35-1.8,1.25-3.398,2.649-4.748c1.849-1.85,4.148-2.799,6.797-2.799c144.992-10.945,293.682-10.945,446.121,0
			c2.299,0,4.299,0.699,6.047,2.099l0.75,0.7c1.301,1.249,2.15,2.648,2.549,4.298l0.102,0.55l-0.15-0.999
			C525.09,41.033,524.439,39.884,523.541,38.884L523.541,38.884z"/>
		<path style="fill:#E3E2B7;" d="M63.325,364.154l-0.05-0.05c-0.45-0.45-0.85-0.95-1.2-1.399l-1.649-5.048
			c0.05,2.499,1,4.647,2.799,6.447c1.85,1.849,4.148,2.749,6.797,2.749l-1.649-0.15C66.423,366.403,64.774,365.554,63.325,364.154
			L63.325,364.154z"/>
		<path d="M70.022,366.854l0.45,0.05l-0.399-0.05C70.022,366.854,70.022,366.854,70.022,366.854L70.022,366.854z"/>
		<path style="fill:#333333;" d="M512.045,45.531l0.699,0.65c0.6,0.55,1.1,1.199,1.5,1.849c4.449-0.25,8.297-1.699,11.445-4.397
			l-0.049-0.351l-0.102-0.55c-0.398-1.649-1.248-3.049-2.549-4.298l-0.75-0.7c-1.748-1.399-3.748-2.099-6.047-2.099
			c-152.439-10.945-301.129-10.945-446.121,0c-2.649,0-4.948,0.949-6.797,2.799c-1.399,1.35-2.299,2.948-2.649,4.748l-0.2,1.85v0.05
			c-12.145,102.109-12.145,206.218,0,312.325c0,0.05,0,0.1,0,0.149s0,0.05,0,0.101l1.649,5.048c0.35,0.449,0.75,0.949,1.2,1.399
			l0.05,0.05c1.449,1.399,3.099,2.249,5.048,2.549l1.649,0.15c0,0,0,0,0.05,0l0.4,0.05l0.35,0.05
			c1.5-3.349,2.749-6.797,3.749-10.346c-0.25-0.2-0.5-0.4-0.75-0.649c-0.05-0.051-0.05-0.051-0.05-0.051
			c-1.799-1.749-2.699-3.898-2.699-6.347c-11.545-100.91-11.545-199.92,0-297.032c0-2.498,0.899-4.598,2.699-6.347
			c1.799-1.75,3.949-2.649,6.498-2.649c138.444-10.445,280.437-10.445,425.98,0C508.447,43.532,510.396,44.183,512.045,45.531
			L512.045,45.531z"/>
		<path style="fill:#454545;" d="M514.895,49.43c0.049,0.2,0.148,0.4,0.25,0.65l0.299,1.999c0,0.149,0,0.3,0,0.45l0.85,7.097
			c4.598,40.634,7.447,79.519,8.547,116.704c1.85,62.624-1.299,120.352-9.396,173.23c0,2.448-0.898,4.598-2.699,6.347
			c-1.748,1.75-3.947,2.649-6.496,2.649c-48.23,4.798-96.412,7.946-144.643,9.496c-93.813,2.999-187.575-0.15-281.337-9.496
			l-1.6-0.15c-1.549-0.25-2.898-0.85-4.098-1.799c-1,3.549-2.249,6.997-3.749,10.346l3.398,0.3l1.15,0.101
			c0.5,0.05,1,0.1,1.499,0.149h0.15c81.417,7.896,162.885,11.346,244.303,10.346c0.85-0.05,1.748-0.05,2.598-0.05
			c1.35-0.149,3.648-0.5,6.998-0.949c0.549-0.051,3.898,0.05,10.146,0.199c1.848,0.051,3.098-0.25,3.748-0.85l19.891,0.65
			c0.201,0,0.4,0,0.602,0l132.596-8.197c1.449-0.149,2.949-0.3,4.498-0.449c2.5-0.25,4.998-0.45,7.547-0.7
			c2.051-0.25,4.148-0.45,6.248-0.649h0.051l5.297-1.55c0.5-0.35,1-0.75,1.449-1.199c1.9-1.85,2.85-4.099,2.85-6.697
			c2.85-18.743,5.148-38.135,6.797-58.077c3.299-39.084,4.299-80.418,3.049-124.051c-1.148-39.134-4.148-80.018-8.996-122.7
			l-0.85-7.497c0-0.15,0-0.25,0-0.4l-0.051-0.55l-0.1-0.499c-3.148,2.698-6.996,4.147-11.445,4.397l0.35,0.65
			C514.693,48.931,514.795,49.18,514.895,49.43L514.895,49.43z"/>
		<path style="fill:#333333;" d="M525.84,44.632l-0.051-0.5l0.051,0.55C525.84,44.632,525.84,44.632,525.84,44.632L525.84,44.632z"
			/>
		<path style="fill:#333333;" d="M323.92,377.799c-0.85,0-1.748,0-2.598,0.05c0.35,0.05,0.799,0.101,1.248,0.101
			C322.621,377.949,323.07,377.898,323.92,377.799L323.92,377.799z"/>
		<path style="fill:#E3E2B7;" d="M330.918,376.85c-3.35,0.449-5.648,0.799-6.998,0.949c13.795-0.2,27.59-0.5,41.385-0.949
			c-0.201,0-0.4,0-0.602,0l-19.891-0.65c-0.65,0.6-1.9,0.899-3.748,0.85C334.816,376.899,331.467,376.799,330.918,376.85
			L330.918,376.85z"/>
		<path style="fill:#333333;" d="M75.37,367.354l-1.15-0.101l0.45,0.05c0.6,0.051,1.199,0.15,1.849,0.2h0.35
			C76.37,367.453,75.87,367.403,75.37,367.354L75.37,367.354z"/>
		<path style="fill:#E3E2B7;" d="M77.019,367.503h-0.15C76.919,367.503,76.969,367.503,77.019,367.503L77.019,367.503z"/>
		<path style="fill:#E3E2B7;" d="M525.84,44.682c0,0.15,0,0.25,0,0.4l0.85,7.497c4.848,42.683,7.848,83.566,8.996,122.7
			c1.25,43.633,0.25,84.967-3.049,124.051c-1.648,19.942-3.947,39.334-6.797,58.077c0,2.599-0.949,4.848-2.85,6.697
			c-0.449,0.449-0.949,0.85-1.449,1.199l-5.297,1.55c2.648,0,4.947-0.9,6.797-2.749c1.85-1.85,2.799-4.099,2.848-6.697
			c13.846-90.564,13.846-194.673,0-312.375L525.84,44.682L525.84,44.682z"/>
		<path style="fill:none;stroke:#FFFFFF;stroke-width:2.2491;stroke-miterlimit:10;" d="M523.541,38.884
			c0.898,1,1.549,2.149,1.949,3.399l0.15,0.999l0.049,0.351l0.1,0.499l0.051,0.55l0.049,0.351
			c13.846,117.702,13.846,221.811,0,312.375c-0.049,2.599-0.998,4.848-2.848,6.697c-1.85,1.849-4.148,2.749-6.797,2.749h-0.051
			c-2.1,0.199-4.197,0.399-6.248,0.649c-2.549,0.25-5.047,0.45-7.547,0.7c-1.549,0.149-3.049,0.3-4.498,0.449l-132.596,8.197
			c-13.795,0.449-27.59,0.749-41.385,0.949c-0.85,0-1.748,0-2.598,0.05c-81.418,1-162.886-2.449-244.303-10.346
			c-0.05,0-0.1,0-0.15,0c-0.5-0.05-1-0.1-1.499-0.15l-1.15-0.1l-3.398-0.3l-0.35-0.05l-0.399-0.05c-0.05,0-0.05,0-0.05,0
			c-2.649,0-4.948-0.9-6.797-2.749c-1.799-1.8-2.749-3.948-2.799-6.447c0-0.051,0-0.051,0-0.101s0-0.1,0-0.149
			c-12.145-106.107-12.145-210.216,0-312.325v-0.05l0.2-1.85c0.35-1.85,1.199-3.499,2.599-4.848c1.85-1.85,4.148-2.749,6.848-2.749
			c144.992-10.996,293.682-10.996,446.172,0c2.648,0,4.947,0.899,6.797,2.749L523.541,38.884L523.541,38.884z"/>
		<path style="fill:#FF9900;" d="M55.491,380.151l-4.179,0.327l-9.534,0.13l-6.399,0.457c-1.633,0.458-1.959,1.372-0.98,2.678
			l3.396,2.024l19.264,0.131l4.114-3.592c0.979-1.371,0.588-2.09-1.241-2.155H55.491L55.491,380.151z"/>
		<polygon style="fill:#FFFF00;" points="51.312,380.479 55.491,380.151 52.226,380.086 50.724,376.038 45.108,375.907 
			43.149,380.479 41.778,380.608 51.312,380.479 		"/>
		<path style="fill:#33CC00;" d="M50.724,376.038l-1.567-4.311c-0.718-1.24-1.502-1.175-2.286,0.131l-1.763,4.049L50.724,376.038
			L50.724,376.038z"/>
		<path style="fill:#6699CC;" d="M47.002,395.302h-6.921l-0.653,2.611c-0.196,2.09,0.653,2.547,2.547,1.437L47.002,395.302
			L47.002,395.302z"/>
		<polygon style="fill:#9966CC;" points="40.081,395.302 47.002,395.302 48.504,394.061 49.549,394.714 49.81,394.845 
			50.528,395.302 57.581,395.236 55.948,390.861 41.19,390.665 40.08,395.302 		"/>
		<polygon style="fill:#FF0000;" points="37.795,385.768 41.778,388.184 41.19,390.665 55.948,390.861 54.773,387.857 
			57.059,385.898 37.795,385.768 		"/>
		<path style="fill:#6699CC;" d="M58.364,397.261l-0.784-2.024l-7.052,0.065l6.008,3.591
			C58.168,399.611,58.756,399.023,58.364,397.261L58.364,397.261z"/>
		<path style="opacity:0.4;" d="M50.855,379.303c0.326,0.719,0.653,0.979,0.914,0.849l0.392-0.261l-3.003-8.163
			c-0.588-0.979-1.176-1.109-1.763-0.522l1.306,2.352c0.196,0.849,0.392,1.502,0.719,2.089l0.653,1.698L50.855,379.303
			L50.855,379.303z"/>
		<path style="opacity:0.4;" d="M61.564,381.719l0.196-0.588l-0.261-0.587l-0.458,0.392l-2.285,2.22l-3.722,2.743l-0.653,0.326
			c-0.458,0.326-0.719,0.783-0.719,1.371l0.131,0.719l0.653,1.763l0.327,0.784l0.457,0.849l1.633,3.526l0.13,0.392l0.327,1.176
			c0.196,0.587,0.261,1.24,0.196,1.959l-0.327,0.392c1.11,0.261,1.502-0.392,1.175-1.894l-3.591-9.403l6.399-5.551L61.564,381.719
			L61.564,381.719z"/>
		<polygon style="fill:#FFFFFF;" points="35.901,382.829 34.726,382.829 42.431,387.987 40.341,398.044 40.798,398.306 
			43.999,387.923 35.901,382.829 		"/>
		<polygon style="fill:#FFFFFF;" points="44.129,380.674 45.892,379.564 47.394,372.838 44.129,380.674 		"/>
		<path style="opacity:0.4;" d="M39.558,399.48l0.065,0.131l0.718,0.326l1.176-0.326l0.326-0.196l0.131-0.065l6.53-5.289
			l0.458,0.262l-0.196-0.262c-0.326-0.457-0.784-0.653-1.371-0.457l-0.131,0.131h-0.261l-0.392,0.392l-0.718,0.588l-1.502,1.24
			l-2.743,2.612v0.065l-1.437,0.653L39.558,399.48L39.558,399.48z"/>
		<path style="opacity:0.4;" d="M50.528,378.911l-0.457-1.828c-1.241,1.24-2.155,2.611-2.612,4.113
			c-0.522,1.502-0.588,3.004-0.131,4.506c0.392,1.502,0.784,2.547,1.175,3.004l1.11,1.306l2.155,1.241
			c1.11,0.457,2.286,0.718,3.657,0.783l-0.457-1.175c1.306-0.065,1.763-0.327,1.437-0.915l-0.326-0.261l-1.502-0.326l-1.829-0.393
			c-1.502-0.261-2.743-0.979-3.722-2.22l-0.065-0.131l-0.262-0.914v-2.938c0.196-1.698,1.045-3.004,2.481-3.918
			c0.327-0.262,0.458-0.588,0.392-0.979C51.442,377.082,51.116,377.409,50.528,378.911L50.528,378.911z"/>
		<path style="fill:#E3E2B7;" d="M55.361,376.233c-2.09,0-3.853,0.719-5.29,2.221c-1.502,1.437-2.22,3.199-2.22,5.289
			s0.718,3.853,2.22,5.354c1.437,1.437,3.2,2.155,5.29,2.155c2.089,0,3.853-0.719,5.354-2.155c1.437-1.502,2.155-3.265,2.155-5.354
			s-0.718-3.853-2.155-5.289C59.213,376.952,57.45,376.233,55.361,376.233L55.361,376.233z"/>
		<path style="fill:#9A9258;" d="M108.403,400.243h-0.03h-0.905v0.03l-0.03,0.86c-0.242-0.407-0.589-0.694-1.026-0.891l-0.739-0.06
			c-1.131,0.136-1.811,0.739-2.052,1.795v0.212v0.029h-0.03l0.015,0.589h0.015c0.166,1.132,0.799,1.796,1.871,2.007l0.966-0.075
			c0.438-0.196,0.754-0.498,0.981-0.891l0.03,0.845v0.03l0.936,0.016v-0.016h0.015L108.403,400.243L108.403,400.243z
			 M107.543,402.764c-0.015,0.181-0.061,0.347-0.136,0.498c-0.347,0.588-0.951,0.799-1.826,0.634l-0.106-0.046
			c-0.588-0.241-0.875-0.8-0.86-1.659c0.166-0.71,0.664-1.071,1.464-1.117c0.438-0.03,0.769,0.046,1.011,0.241
			C107.438,401.602,107.588,402.084,107.543,402.764L107.543,402.764z"/>
		<path style="fill:#9A9258;" d="M110.742,400.998h0.03h0.573l0.015,0.015l0.543,0.332v-0.015l0.604-0.573l-0.498-0.348
			c-0.196-0.105-0.408-0.181-0.634-0.211c-0.996-0.12-1.569,0.241-1.72,1.071c-0.03,0.166-0.015,0.302,0.045,0.438
			c0.256,0.589,0.739,0.966,1.448,1.146c0.347,0.076,0.559,0.317,0.604,0.71v0.029c-0.105,0.182-0.271,0.317-0.498,0.408h-0.03
			c-0.468,0.015-0.815-0.105-1.011-0.348h-0.03l-0.694,0.317c0.151,0.256,0.347,0.452,0.588,0.604l0.513,0.196
			c1.041,0.136,1.705-0.212,1.977-1.041v-0.317l-0.076-0.302c-0.287-0.618-0.799-1.011-1.523-1.207
			c-0.302-0.075-0.468-0.302-0.498-0.648l0.015-0.016L110.742,400.998L110.742,400.998z"/>
		<polygon style="fill:#9A9258;" points="113.82,398.931 113.82,398.961 113.82,398.991 113.82,400.243 113.79,400.243 
			113.095,400.243 113.065,400.243 113.081,401.119 113.095,401.119 113.79,401.119 113.82,401.119 113.82,404.694 113.82,404.725 
			114.755,404.74 114.755,404.725 114.785,401.134 114.785,401.119 115.661,401.119 115.691,401.119 115.706,401.104 
			115.691,400.243 115.661,400.243 114.785,400.243 114.785,400.214 114.755,398.961 114.755,398.946 113.82,398.931 		"/>
		<path style="fill:#9A9258;" d="M85.649,400.439c-0.347-0.226-0.814-0.316-1.373-0.271c-1.328,0.105-2.112,0.77-2.338,1.992
			c-0.03,0.905,0.181,1.584,0.618,2.021c0.347,0.347,0.83,0.559,1.434,0.634c0.498,0.075,0.936,0.015,1.313-0.166l0.347-0.181h0.015
			c0.015-0.393,0.015-0.755-0.015-1.087l-0.498,0.287c-0.181,0.105-0.393,0.166-0.619,0.181c-1.117,0.075-1.675-0.452-1.69-1.6
			c0.151-0.754,0.664-1.146,1.524-1.161c0.407-0.016,0.724,0.061,0.98,0.227l0.302,0.15v0.015
			C85.695,401.134,85.695,400.787,85.649,400.439L85.649,400.439z"/>
		<path style="fill:#9A9258;" d="M89.648,400.273l-0.996-0.105c-1.283,0.151-2.052,0.83-2.309,2.022
			c-0.015,0.89,0.226,1.523,0.694,1.931l0.498,0.407h0.03c0.241,0.166,0.543,0.272,0.905,0.317h0.03l0.573,0.015l0.015-0.015
			c0.739-0.136,1.282-0.468,1.645-0.98c0.226-0.317,0.347-0.71,0.377-1.207c0.03-0.694-0.121-1.223-0.438-1.569l-0.302-0.362h-0.03
			C90.146,400.53,89.919,400.38,89.648,400.273L89.648,400.273z M89.105,401.119l0.392,0.105c0.105,0.061,0.211,0.136,0.287,0.241
			h0.03l0.227,0.332c0.075,0.136,0.121,0.271,0.136,0.422c0.075,0.83-0.211,1.358-0.86,1.585l-1.192-0.046h-0.03h-0.03
			c-0.528-0.241-0.785-0.739-0.785-1.479C87.475,401.421,88.079,401.028,89.105,401.119L89.105,401.119z"/>
		<path style="fill:#9A9258;" d="M92.002,400.243v0.03l0.015,4.451h0.015h0.875h0.03c-0.03-0.995,0-1.946,0.091-2.852
			c0.015-0.181,0.075-0.332,0.166-0.468c0.151-0.227,0.362-0.377,0.634-0.468h0.498h0.03c0.498,0.227,0.709,0.755,0.634,1.614
			l-0.045,1.102v1.071h0.905h0.03h0.015c0.015-1.146,0.015-2.278-0.015-3.38c-0.121-0.588-0.438-0.965-0.95-1.146l-0.649-0.015
			c-0.588,0.105-1.026,0.377-1.343,0.784v-0.03v-0.664v-0.015L92.002,400.243L92.002,400.243z"/>
		<polygon style="fill:#9A9258;" points="98.293,398.961 98.293,398.946 97.358,398.931 97.358,398.961 97.328,398.961 
			97.328,400.214 97.328,400.243 97.298,400.243 96.604,400.243 96.604,401.059 96.604,401.089 97.298,401.119 97.328,401.119 
			97.343,404.725 97.358,404.725 98.264,404.725 98.293,404.725 98.293,401.134 98.293,401.119 99.229,401.104 99.229,401.089 
			99.229,401.059 99.229,400.273 99.229,400.259 98.293,400.243 98.293,400.214 98.293,398.961 		"/>
		<path style="fill:#9A9258;" d="M100.21,400.243v0.03v4.421v0.03h0.649h0.03h0.03h0.196h0.03h0.015
			c0.015-0.347,0.015-0.648-0.015-0.936l0.06-0.03v-0.029h-0.015l-0.015-1.66v-0.03v-0.105c0.136-0.377,0.362-0.634,0.709-0.784
			l0.015-0.016v-0.015h0.03h0.03l0.679-0.016l0.03,0.016l0.256-0.876v-0.029l-0.664-0.061h-0.03h-0.03
			c-0.483,0.196-0.83,0.513-1.056,0.98v-0.015v-0.846v-0.015L100.21,400.243L100.21,400.243z"/>
	</g>
</g>
<g id="Layer_3">
	<g>
		<polygon style="opacity:0.25;" points="118.804,405.544 128.349,392.549 107.308,384.452 101.21,405.594 118.804,405.544 		"/>
		<path style="fill:#818181;" d="M116.104,378.654c-1.25-0.649-2.649-0.949-4.149-0.949l-2.449,0.3h-0.15
			c-1.45,0.449-2.699,1.25-3.849,2.398l-0.6,0.65l-0.5,0.649c0.15-0.05,0.9-0.35,2.249-0.999c1.35-0.65,3.499-0.801,6.448-0.551
			c0.999,0.351,2.099,0.9,3.249,1.65c1.148,0.699,1.85,2.148,2.1,4.398c0.248,2.248,0.35,4.498,0.199,6.847l1.148-1.499
			c0.852-1.4,1.301-2.949,1.301-4.699c0-2.549-0.9-4.697-2.648-6.447L116.104,378.654L116.104,378.654z"/>
		<path style="fill:#4F4F4F;" d="M111.956,377.705c1.5,0,2.899,0.3,4.149,0.949l6.996-1.948c-0.949-0.65-1.898-1-2.848-1.1
			l-4.349,0.749l-6.397,1.649L111.956,377.705L111.956,377.705z"/>
		<path style="fill:#666666;" d="M116.354,381.804c-1.15-0.75-2.25-1.3-3.249-1.65c-2.949-0.25-5.098-0.1-6.448,0.551
			c-1.349,0.649-2.099,0.949-2.249,0.999l0.5-0.649c-1.399,1.649-2.099,3.549-2.099,5.797c0,2.5,0.899,4.648,2.699,6.448
			c1,0.999,2.099,1.699,3.349,2.149l0.1,0.05l0.5,0.149l0.75,0.2l1.749,0.15c2.549-0.051,4.698-0.95,6.499-2.699l0.199-0.25
			c0.15-2.349,0.051-4.599-0.199-6.847C118.204,383.952,117.503,382.503,116.354,381.804L116.354,381.804z"/>
		<path style="fill:#333333;" d="M116.104,378.654l2.35,1.749c1.748,1.75,2.648,3.898,2.648,6.447c0,1.75-0.449,3.299-1.301,4.699
			l1.65-0.101l2.1-0.55l5.197-2.699l0.051-1.199c0-3.248-1.051-5.998-3.199-8.196c-0.85-0.851-1.65-1.55-2.5-2.1L116.104,378.654
			L116.104,378.654z"/>
		<path d="M128.749,388.2l-5.197,2.699l-2.1,0.55l-1.648,0.101l-1.15,1.499l-0.199,0.25c-1.801,1.749-3.949,2.648-6.498,2.699
			l-1.75-0.15l8.947,1.649l2.549,0.149c1.648-0.799,2.898-1.549,3.648-2.299C127.351,393.299,128.499,390.95,128.749,388.2
			L128.749,388.2z"/>
		<path style="fill:none;stroke:#000000;stroke-width:1.2495;stroke-miterlimit:10;" d="M110.207,395.848l8.947,1.649l2.549,0.149
			c1.648-0.799,2.898-1.549,3.648-2.299c2-2.049,3.148-4.397,3.398-7.147l0.051-1.199c0-3.248-1.051-5.998-3.199-8.196
			c-0.85-0.851-1.65-1.55-2.5-2.1c-0.949-0.649-1.898-0.999-2.848-1.099l-4.349,0.749l-6.397,1.649 M109.507,378.005h-0.15
			c-1.45,0.449-2.699,1.25-3.849,2.398l-0.6,0.65c-1.399,1.649-2.099,3.549-2.099,5.797c0,2.5,0.899,4.648,2.699,6.448
			c1,0.999,2.099,1.699,3.349,2.149l0.1,0.05l0.5,0.149l0.75,0.2 M109.507,378.005l2.449-0.3c1.5,0,2.899,0.3,4.149,0.949
			l2.35,1.749c1.748,1.75,2.648,3.898,2.648,6.447c0,1.75-0.449,3.299-1.301,4.699l-1.148,1.499l-0.199,0.25
			c-1.801,1.749-3.949,2.648-6.499,2.699l-1.749-0.15"/>
	</g>
</g>
<g id="Layer_2">
	<g>
		<polygon style="opacity:0.25;" points="85.804,405.274 95.349,392.611 74.308,384.723 68.21,405.323 85.804,405.274 		"/>
		<path style="fill:#818181;" d="M83.104,378.654c-1.25-0.649-2.649-0.949-4.149-0.949l-2.449,0.3h-0.15
			c-1.45,0.449-2.699,1.25-3.849,2.398l-0.6,0.65l-0.5,0.649c0.15-0.05,0.9-0.35,2.249-0.999c1.35-0.65,3.499-0.801,6.448-0.551
			c0.999,0.351,2.099,0.9,3.249,1.65c1.148,0.699,1.85,2.148,2.1,4.398c0.248,2.248,0.35,4.498,0.199,6.847l1.148-1.499
			c0.852-1.4,1.301-2.949,1.301-4.699c0-2.549-0.9-4.697-2.648-6.447L83.104,378.654L83.104,378.654z"/>
		<path style="fill:#4F4F4F;" d="M78.956,377.705c1.5,0,2.899,0.3,4.149,0.949l6.996-1.948c-0.949-0.65-1.898-1-2.848-1.1
			l-4.349,0.749l-6.397,1.649L78.956,377.705L78.956,377.705z"/>
		<path style="fill:#666666;" d="M83.354,381.804c-1.15-0.75-2.25-1.3-3.249-1.65c-2.949-0.25-5.098-0.1-6.448,0.551
			c-1.349,0.649-2.099,0.949-2.249,0.999l0.5-0.649c-1.399,1.649-2.099,3.549-2.099,5.797c0,2.5,0.899,4.648,2.699,6.448
			c1,0.999,2.099,1.699,3.349,2.149l0.1,0.05l0.5,0.149l0.75,0.2l1.749,0.15c2.549-0.051,4.698-0.95,6.499-2.699l0.199-0.25
			c0.15-2.349,0.051-4.599-0.199-6.847C85.204,383.952,84.503,382.503,83.354,381.804L83.354,381.804z"/>
		<path style="fill:#333333;" d="M83.104,378.654l2.35,1.749c1.748,1.75,2.648,3.898,2.648,6.447c0,1.75-0.449,3.299-1.301,4.699
			l1.65-0.101l2.1-0.55l5.197-2.699l0.051-1.199c0-3.248-1.051-5.998-3.199-8.196c-0.85-0.851-1.65-1.55-2.5-2.1L83.104,378.654
			L83.104,378.654z"/>
		<path d="M95.749,388.2l-5.197,2.699l-2.1,0.55l-1.648,0.101l-1.15,1.499l-0.199,0.25c-1.801,1.749-3.949,2.648-6.498,2.699
			l-1.75-0.15l8.947,1.649l2.549,0.149c1.648-0.799,2.898-1.549,3.648-2.299C94.351,393.299,95.499,390.95,95.749,388.2
			L95.749,388.2z"/>
		<path style="fill:none;stroke:#000000;stroke-width:1.2495;stroke-miterlimit:10;" d="M77.207,395.848l8.947,1.649l2.549,0.149
			c1.648-0.799,2.898-1.549,3.648-2.299c2-2.049,3.148-4.397,3.398-7.147l0.051-1.199c0-3.248-1.051-5.998-3.199-8.196
			c-0.85-0.851-1.65-1.55-2.5-2.1c-0.949-0.649-1.898-0.999-2.848-1.099l-4.349,0.749l-6.397,1.649 M76.507,378.005h-0.15
			c-1.45,0.449-2.699,1.25-3.849,2.398l-0.6,0.65c-1.399,1.649-2.099,3.549-2.099,5.797c0,2.5,0.899,4.648,2.699,6.448
			c1,0.999,2.099,1.699,3.349,2.149l0.1,0.05l0.5,0.149l0.75,0.2 M76.507,378.005l2.449-0.3c1.5,0,2.899,0.3,4.149,0.949l2.35,1.749
			c1.748,1.75,2.648,3.898,2.648,6.447c0,1.75-0.449,3.299-1.301,4.699l-1.148,1.499l-0.199,0.25
			c-1.801,1.749-3.949,2.648-6.499,2.699l-1.749-0.15"/>
	</g>
</g>
</svg>
